<?xml version="1.0" encoding="UTF-8"?>
<svg id="Layer_2" xmlns="http://www.w3.org/2000/svg" version="1.1" viewBox="0 0 58 62">
  <!-- Generator: Adobe Illustrator 29.2.1, SVG Export Plug-In . SVG Version: 2.1.0 Build 116)  -->
  <defs>
    <style>
      .st0 {
        fill: none;
        stroke: #091828;
        stroke-linecap: round;
        stroke-linejoin: round;
        stroke-width: 2px;
      }
    </style>
  </defs>
  <g id="Layer_1-2">
    <g>
      <path class="st0" d="M21,50c0-.8-.2-1.7-.5-2.5-2-7.2-9.5-16.6-9.5-16.6,0,0-7.4,9.4-9.5,16.6-.2.8-.4,1.6-.5,2.5v.8c0,5.6,4.5,10.2,10,10.2s10-4.6,10-10.2v-.8Z"/>
      <path class="st0" d="M57,50c0-.8-.2-1.7-.5-2.5-2-7.2-9.5-16.6-9.5-16.6,0,0-7.4,9.4-9.5,16.6-.2.8-.4,1.6-.5,2.5v.8c0,5.6,4.5,10.2,10,10.2s10-4.6,10-10.2v-.8Z"/>
      <path class="st0" d="M39,20c0-.9-.2-1.7-.5-2.5C36.4,10.4,29,1,29,1c0,0-7.4,9.4-9.5,16.6-.3.8-.4,1.6-.5,2.5v.8c0,5.6,4.5,10.2,10,10.2s10-4.6,10-10.2v-.8h0Z"/>
    </g>
  </g>
</svg>