<?xml version="1.0" encoding="UTF-8"?>
<svg id="Layer_2" xmlns="http://www.w3.org/2000/svg" version="1.1" viewBox="0 0 62 50">
  <!-- Generator: Adobe Illustrator 29.2.1, SVG Export Plug-In . SVG Version: 2.1.0 Build 116)  -->
  <defs>
    <style>
      .st0 {
        fill: none;
        stroke: #091828;
        stroke-linecap: round;
        stroke-linejoin: round;
        stroke-width: 2px;
      }
    </style>
  </defs>
  <g id="Layer_1-2">
    <g>
      <path class="st0" d="M33,1c5.5,0,10,4.5,10,10h0c0,5.5-4.5,10-10,10H7c-3.3,0-6,2.7-6,6h0c0,3.3,2.7,6,6,6h24c4.4,0,8,3.6,8,8h0c0,4.4-3.6,8-8,8"/>
      <path class="st0" d="M25,5c2.2,0,4,1.8,4,4h0c0,2.2-1.8,4-4,4h-12"/>
      <path class="st0" d="M49,9c4.4,0,8,3.6,8,8h0c0,4.4-3.6,8-8,8h-6"/>
      <path class="st0" d="M55,45c3.3,0,6-2.7,6-6h0c0-3.3-2.7-6-6-6h-12"/>
    </g>
  </g>
</svg>