<?xml version="1.0" encoding="UTF-8"?>
<svg id="Layer_2" xmlns="http://www.w3.org/2000/svg" version="1.1" viewBox="0 0 62 48">
  <!-- Generator: Adobe Illustrator 29.2.1, SVG Export Plug-In . SVG Version: 2.1.0 Build 116)  -->
  <defs>
    <style>
      .st0 {
        fill: none;
        stroke: #091828;
        stroke-linecap: round;
        stroke-linejoin: round;
        stroke-width: 1px;
      }
    </style>
  </defs>
  <g id="Layer_1-2">
    <g>
      <path class="st0" d="M53.2,28.8c4.4-1,7.8-5,7.8-9.8s-4.5-10-10-10c-2-4.7-6.6-8-12-8s-12.5,5.2-13,12"/>
      <path class="st0" d="M55,35c0-6.6-5.4-12-12-12s-.8,0-1.2,0c-2.4-5.9-8.1-10.1-14.9-10.1s-14.9,6.1-15.9,14c0,0,0,0-.1,0-5.5,0-10,4.5-10,10s4.5,10,10,10h32.1c6.6,0,11.9-5.4,11.9-12Z"/>
    </g>
  </g>
</svg>