<?xml version="1.0" encoding="UTF-8"?>
<svg id="Layer_2" xmlns="http://www.w3.org/2000/svg" version="1.1" viewBox="0 0 62 50">
  <!-- Generator: Adobe Illustrator 29.2.1, SVG Export Plug-In . SVG Version: 2.1.0 Build 116)  -->
  <defs>
    <style>
      .st0 {
        fill: none;
        stroke: #091828;
        stroke-linecap: round;
        stroke-linejoin: round;
        stroke-width: 1px;
      }
    </style>
  </defs>
  <g id="Layer_1-2">
    <g>
      <path class="st0" d="M26.1,32.5c-1,.3-2,.5-3.1.5-5.5,0-10-4.5-10-10s4.5-10,10-10,9.7,4.2,10,9.5"/>
      <line class="st0" x1="23" y1="1" x2="23" y2="7"/>
      <line class="st0" x1="7" y1="23" x2="1" y2="23"/>
      <line class="st0" x1="7.4" y1="7.4" x2="11.7" y2="11.7"/>
      <line class="st0" x1="38.6" y1="7.4" x2="34.3" y2="11.7"/>
      <line class="st0" x1="11.7" y1="34.3" x2="7.4" y2="38.6"/>
      <path class="st0" d="M51,29c-2-4.7-6.6-8-12-8s-12.5,5.3-13,12.1c-.4,0-.7-.1-1.1-.1-4.4,0-8,3.6-8,8s3.6,8,8,8h26c5.5,0,10-4.5,10-10s-4.5-10-10-10h0Z"/>
    </g>
  </g>
</svg>