<?xml version="1.0" encoding="UTF-8"?>
<svg id="Layer_2" xmlns="http://www.w3.org/2000/svg" version="1.1" viewBox="0 0 62 60">
  <!-- Generator: Adobe Illustrator 29.2.1, SVG Export Plug-In . SVG Version: 2.1.0 Build 116)  -->
  <defs>
    <style>
      .st0 {
        fill: none;
        stroke: #091828;
        stroke-linecap: round;
        stroke-linejoin: round;
        stroke-width: 1px;
      }
    </style>
  </defs>
  <g id="Layer_1-2">
    <g>
      <g>
        <line class="st0" x1="17" y1="45" x2="17" y2="49"/>
        <line class="st0" x1="19" y1="47" x2="15" y2="47"/>
      </g>
      <g>
        <line class="st0" x1="33" y1="47" x2="29" y2="47"/>
        <line class="st0" x1="31" y1="49" x2="31" y2="45"/>
      </g>
      <g>
        <line class="st0" x1="26" y1="57" x2="22" y2="57"/>
        <line class="st0" x1="24" y1="59" x2="24" y2="55"/>
      </g>
      <g>
        <line class="st0" x1="39" y1="55" x2="39" y2="59"/>
        <line class="st0" x1="41" y1="57" x2="37" y2="57"/>
      </g>
      <g>
        <line class="st0" x1="45" y1="45" x2="45" y2="49"/>
        <line class="st0" x1="47" y1="47" x2="43" y2="47"/>
      </g>
      <path class="st0" d="M48,11c-.2,0-.3,0-.5,0-2.7-5.9-8.6-10-15.5-10s-15.6,6.3-16.8,14.5c-1-.3-2.1-.5-3.2-.5C5.9,15,1,19.9,1,26s4.9,11,11,11h36c7.2,0,13-5.8,13-13s-5.8-13-13-13Z"/>
    </g>
  </g>
</svg>