<?xml version="1.0" encoding="UTF-8"?>
<svg id="Layer_2" xmlns="http://www.w3.org/2000/svg" version="1.1" viewBox="0 0 62 57.9">
  <!-- Generator: Adobe Illustrator 29.2.1, SVG Export Plug-In . SVG Version: 2.1.0 Build 116)  -->
  <defs>
    <style>
      .st0 {
        fill: none;
        stroke: #091828;
        stroke-linecap: round;
        stroke-linejoin: round;
        stroke-width: 1px;
      }
    </style>
  </defs>
  <g id="Layer_1-2">
    <g>
      <path class="st0" d="M41,37h7c7.2,0,13-5.8,13-13s-5.8-13-13-13-.3,0-.5,0c-2.7-5.9-8.6-10-15.5-10s-15.6,6.3-16.8,14.5c-1-.3-2.1-.5-3.2-.5C5.9,15,1,19.9,1,26s4.9,11,11,11h9"/>
      <line class="st0" x1="15" y1="45" x2="8.6" y2="53"/>
      <polyline class="st0" points="35 32.5 25 45 33 45 23.4 56.9"/>
      <line class="st0" x1="47" y1="45" x2="40.6" y2="52.9"/>
    </g>
  </g>
</svg>