<?xml version="1.0" encoding="UTF-8"?>
<svg id="Layer_2" xmlns="http://www.w3.org/2000/svg" version="1.1" viewBox="0 0 62 62">
  <!-- Generator: Adobe Illustrator 29.2.1, SVG Export Plug-In . SVG Version: 2.1.0 Build 116)  -->
  <defs>
    <style>
      .st0 {
        fill: none;
        stroke: #091828;
        stroke-linecap: round;
        stroke-linejoin: round;
        stroke-width: 1px;
      }
    </style>
  </defs>
  <g id="Layer_1-2">
    <g>
      <path class="st0" d="M48,11c-.2,0-.3,0-.5,0-2.7-5.9-8.6-10-15.5-10s-15.6,6.3-16.8,14.5c-1-.3-2.1-.5-3.2-.5C5.9,15,1,19.9,1,26s4.9,11,11,11h36c7.2,0,13-5.8,13-13s-5.8-13-13-13h0Z"/>
      <circle class="st0" cx="17" cy="44" r="1"/>
      <circle class="st0" cx="25" cy="48" r="1"/>
      <circle class="st0" cx="27" cy="56" r="1"/>
      <circle class="st0" cx="37" cy="60" r="1"/>
      <circle class="st0" cx="45" cy="56" r="1"/>
      <circle class="st0" cx="17" cy="60" r="1"/>
      <circle class="st0" cx="47" cy="46" r="1"/>
      <circle class="st0" cx="35" cy="52" r="1"/>
      <circle class="st0" cx="13" cy="52" r="1"/>
      <circle class="st0" cx="37" cy="44" r="1"/>
    </g>
  </g>
</svg>